<svg width="64" height="64" version="1.1" viewBox="0 0 16.9 16.9" xmlns="http://www.w3.org/2000/svg">
 <g>
  <rect width="16.9" height="16.9" ry="3.17" fill="#34495e"/>
  <path transform="scale(.265)" d="m0 43.4v8.66c0 6.63 5.34 12 12 12h2.78l4.31-20.6z" fill="#2183cd"/>
  <path transform="scale(.265)" d="m45.6.0488-3.18 21.6 21.5.0938v-9.74c0-6.31-4.83-11.4-11-11.9h-7.35z" fill="#ffd306"/>
  <path transform="scale(.265)" d="m38 43.4-4.02 20.6 18-.0234c6.63-.0086 12-5.34 12-12v-8.95z" fill="#e94b35"/>
  <rect y="5.78" width="5.66" height="5.73" fill="#9921ff"/>
  <rect x="10.7" y="5.69" width="6.27" height="5.73" fill="#00ab1a"/>
  <rect x="5.38" y="5.62" width="5.3" height="5.73" fill="#fff"/>
  <path d="m7.15-.0382h5.38l-1.36 5.73h-5.22z" fill="#ff008e"/>
  <path d="m5.1 11.2h5.38l-1.36 5.73h-5.22z" fill="#f60"/>
  <g transform="matrix(2.09 0 0 2.09 2.53 -5.14)" fill="#1a1a1a" style="shape-inside:url(#rect1447);white-space:pre" aria-label="#">
   <path d="m5.76 4.98h-1.23l.392-2.11h-.667l-.392 2.11h-1.83l.402-2.11h-.667l-.392 2.11h-1.23l-.116.582h1.23l-.392 2.11h-1.23l-.116.582h1.23l-.392 2.1h.656l.392-2.1h1.84l-.392 2.1h.656l.392-2.1h1.23l.116-.582h-1.24l.402-2.11h1.23zm-2 .582-.402 2.11h-1.83l.402-2.11z" fill="#1a1a1a"/>
  </g>
 </g>
</svg>
